<?xml version="1.0" encoding="UTF-8" standalone="no"?>
<!-- 由 Microsoft Visio, SVG Export 生成 reapi_icon.svg Page-1 -->

<svg
   width="2.2176478in"
   height="0.65217346in"
   viewBox="0 0 159.6707 46.956453"
   xml:space="preserve"
   color-interpolation-filters="sRGB"
   class="st6"
   version="1.1"
   id="svg48"
   sodipodi:docname="reapi_icon.svg"
   inkscape:export-filename="reapi_icon.svg"
   inkscape:export-xdpi="96"
   inkscape:export-ydpi="96"
   inkscape:version="1.2.2 (732a01da63, 2022-12-09)"
   xmlns:inkscape="http://www.inkscape.org/namespaces/inkscape"
   xmlns:sodipodi="http://sodipodi.sourceforge.net/DTD/sodipodi-0.dtd"
   xmlns="http://www.w3.org/2000/svg"
   xmlns:svg="http://www.w3.org/2000/svg"><defs
   id="defs52" /><sodipodi:namedview
   id="namedview50"
   pagecolor="#ffffff"
   bordercolor="#000000"
   borderopacity="0.25"
   inkscape:showpageshadow="2"
   inkscape:pageopacity="0.0"
   inkscape:pagecheckerboard="0"
   inkscape:deskcolor="#d1d1d1"
   inkscape:document-units="in"
   showgrid="false"
   inkscape:zoom="4.1744909"
   inkscape:cx="137.38202"
   inkscape:cy="68.990449"
   inkscape:window-width="1920"
   inkscape:window-height="1009"
   inkscape:window-x="-8"
   inkscape:window-y="-8"
   inkscape:window-maximized="1"
   inkscape:current-layer="svg48" />
	<style
   type="text/css"
   id="style2">
	<![CDATA[
		.st1 {fill:none;stroke:none;stroke-width:0.25}
		.st2 {fill:#ff0000;font-family:Segoe UI;font-size:4.00001em}
		.st3 {fill:#000000;font-size:1em}
		.st4 {fill:#000000;stroke:none;stroke-linecap:butt;stroke-width:6.375}
		.st5 {fill:#0070c0;stroke:#0070c0;stroke-linecap:round;stroke-linejoin:round;stroke-width:0.25}
		.st6 {fill:none;fill-rule:evenodd;font-size:12px;overflow:visible;stroke-linecap:square;stroke-miterlimit:3}
	]]>
	</style>

	
<g
   id="g46"
   transform="translate(-27.758289,-27.807058)">
		<title
   id="title4">页-1</title>
		<g
   id="shape1-1"
   transform="translate(54.515,-18.4538)">
			<title
   id="title6">工作表.1</title>
			<desc
   id="desc8">ReAPI</desc>
			
			<text
   x="14.32"
   y="89.169998"
   class="st2"
   id="text14"
   style="font-size:48.0001px;font-family:'Segoe UI';fill:#ff0000">Re<tspan
   class="st3"
   id="tspan12">API</tspan></text>		</g>
		<g
   id="group1000-5"
   transform="translate(18,-28.3465)">
			<title
   id="title17">工作表.1000</title>
			<g
   id="group25-6">
				<title
   id="title19">工作表.25</title>
				<g
   id="shape27-7"
   transform="translate(18.7085,-6.42443)">
					<title
   id="title21">工作表.27</title>
					<path
   d="M 13.16,99.32 H 1.85 c -1.05,0.06 -1.85,0.96 -1.79,2.01 0.06,0.96 0.83,1.73 1.79,1.78 h 11.31 c 1.05,-0.06 1.85,-0.96 1.79,-2 -0.06,-0.97 -0.82,-1.73 -1.79,-1.79 z"
   class="st4"
   id="path23"
   style="fill:#000000;stroke:none;stroke-width:6.375;stroke-linecap:butt" />
				</g>
				<g
   id="shape28-9"
   transform="translate(22.1074)">
					<title
   id="title26">工作表.28</title>
					<path
   d="m 4.11,103.11 c 2.15,0 3.93,-1.65 4.1,-3.79 H 0 c 0.17,2.14 1.96,3.79 4.11,3.79 z"
   class="st4"
   id="path28"
   style="fill:#000000;stroke:none;stroke-width:6.375;stroke-linecap:butt" />
				</g>
				<g
   id="shape29-11"
   transform="translate(9.75829,-12.8465)">
					<title
   id="title31">工作表.29</title>
					<path
   d="M 32.88,85.8 V 85.24 C 32.71,76.26 25.42,69.06 16.44,69 7.46,69.06 0.17,76.26 0,85.24 v 0.56 c 0.06,1.95 0.45,3.87 1.14,5.69 0.67,1.72 1.64,3.3 2.86,4.68 1.5,1.64 3.15,4.82 3.84,6.24 0.22,0.43 0.66,0.7 1.14,0.7 H 23.9 c 0.48,0 0.92,-0.27 1.13,-0.7 0.7,-1.42 2.34,-4.6 3.85,-6.24 1.22,-1.38 2.19,-2.96 2.85,-4.68 0.7,-1.82 1.09,-3.74 1.15,-5.69 z m -3.79,-0.05 c -0.05,1.51 -0.34,3 -0.87,4.41 -0.5,1.28 -1.22,2.45 -2.13,3.48 -1.46,1.73 -2.72,3.64 -3.73,5.66 H 10.52 C 9.52,97.27 8.27,95.36 6.83,93.62 5.92,92.59 5.19,91.42 4.7,90.14 4.15,88.73 3.84,87.24 3.79,85.73 v -0.48 c 0.12,-6.9 5.72,-12.45 12.63,-12.49 6.9,0.04 12.51,5.59 12.63,12.49 z"
   class="st4"
   id="path33"
   style="fill:#000000;stroke:none;stroke-width:6.375;stroke-linecap:butt" />
				</g>
			</g>
			<g
   id="group37-13"
   transform="translate(18.4064,-27.152)">
				<title
   id="title37">云.228</title>
				<g
   id="shape38-14">
					<title
   id="title39">工作表.38</title>
					<path
   d="m 13.45,98.67 c -0.06,0 -0.13,0 -0.19,0 0,0 0,0 0,0 0,-0.91 -0.44,-1.74 -1.15,-2.25 C 11.37,95.9 10.44,95.77 9.59,96.06 8.9,94.7 7.36,94 5.89,94.35 4.42,94.7 3.36,96.03 3.36,97.56 c 0,0 0,0.02 0,0.04 -1.01,-0.17 -2.02,0.25 -2.64,1.07 -0.61,0.83 -0.72,1.92 -0.3,2.84 0.44,0.92 1.36,1.53 2.37,1.59 v 0.01 h 10.64 c 1.21,0 2.2,-0.99 2.2,-2.21 0,-1.22 -0.97,-2.23 -2.18,-2.23 z"
   class="st5"
   id="path41"
   style="fill:#0070c0;stroke:#0070c0;stroke-width:0.25;stroke-linecap:round;stroke-linejoin:round" />
				</g>
			</g>
		</g>
	</g></svg>
